<svg id="Layer_1" data-name="Layer 1" xmlns="http://www.w3.org/2000/svg" viewBox="0 0 80 79"><defs><style>.cls-1{fill:#71b242;}</style></defs><path class="cls-1" d="M75.8,39.66A35.37,35.37,0,0,1,50.06,73.53L44.47,66l-3.41-4.59V52.28h8.59V64.61A27.1,27.1,0,0,0,63.82,52.28a26.26,26.26,0,0,0,2.88-8.42H49.65V35.35H66.7A26.9,26.9,0,0,0,49.65,14.61V27H41.06V4.38a36.74,36.74,0,0,1,8.59,1.28A35.39,35.39,0,0,1,75.8,39.66Z"/><path class="cls-1" d="M76.85,24.12a39.29,39.29,0,0,0-8.57-12.56,40.3,40.3,0,0,0-56.56,0A39.29,39.29,0,0,0,3.15,24.12a39.12,39.12,0,0,0,0,30.76,39.36,39.36,0,0,0,8.57,12.55A40.24,40.24,0,0,0,29.48,77.62a40.41,40.41,0,0,0,26.09-1.73,39.94,39.94,0,0,0,12.71-8.46,39.36,39.36,0,0,0,8.57-12.55,39.12,39.12,0,0,0,0-30.76ZM51.42,75.36c-.71.22-1.43.42-2.15.6l0,0-1.37-1.84L42.1,66.31l-1-1.4L40,63.47,38.86,65l-1,1.34L32.1,74.08l-1.37,1.85,0,0c-.72-.17-1.43-.37-2.14-.6A37.7,37.7,0,0,1,1.91,39.49C1.91,18.77,19,1.91,40,1.91S78.09,18.77,78.09,39.49A37.72,37.72,0,0,1,51.42,75.36Z"/><path class="cls-1" d="M38.86,4.39V13L30.77,27,26,35.35l-9.9,17.13A27.1,27.1,0,0,0,30.31,64.69V43.86h8.55V61.51l-3.37,4.54-5.56,7.48A35.68,35.68,0,0,1,6.46,52l6.29-10.91L20.87,27l6.42-11.13A27.11,27.11,0,0,0,15.9,27H6.59A35.76,35.76,0,0,1,38.86,4.39Z"/></svg>